<mxfile host="app.diagrams.net" modified="2021-02-22T01:09:25.660Z" agent="5.0 (X11; Linux x86_64) AppleWebKit/537.36 (KHTML, like Gecko) Chrome/84.0.4147.89 Safari/537.36" etag="3m6E74O1eKKl9rVYbvVd" version="14.4.2" type="github">
  <diagram id="wFkyArUPZ-gSU3AaKDoi" name="第 1 页">
    <mxGraphModel dx="856" dy="676" grid="1" gridSize="10" guides="1" tooltips="1" connect="1" arrows="1" fold="1" page="1" pageScale="1" pageWidth="827" pageHeight="1169" math="0" shadow="0">
      <root>
        <mxCell id="0" />
        <mxCell id="1" parent="0" />
        <mxCell id="UlKWdR4gD4S5ooXyk4Mm-3" value="应用" style="rounded=1;whiteSpace=wrap;html=1;" vertex="1" parent="1">
          <mxGeometry x="140" y="100" width="190" height="230" as="geometry" />
        </mxCell>
        <mxCell id="UlKWdR4gD4S5ooXyk4Mm-6" value="" style="edgeStyle=orthogonalEdgeStyle;rounded=0;orthogonalLoop=1;jettySize=auto;html=1;" edge="1" parent="1" source="UlKWdR4gD4S5ooXyk4Mm-4" target="UlKWdR4gD4S5ooXyk4Mm-3">
          <mxGeometry relative="1" as="geometry" />
        </mxCell>
        <mxCell id="UlKWdR4gD4S5ooXyk4Mm-4" value="用户" style="rounded=0;whiteSpace=wrap;html=1;" vertex="1" parent="1">
          <mxGeometry x="10" y="160" width="90" height="40" as="geometry" />
        </mxCell>
        <mxCell id="UlKWdR4gD4S5ooXyk4Mm-7" value="" style="edgeStyle=orthogonalEdgeStyle;rounded=0;orthogonalLoop=1;jettySize=auto;html=1;" edge="1" parent="1" source="UlKWdR4gD4S5ooXyk4Mm-5" target="UlKWdR4gD4S5ooXyk4Mm-3">
          <mxGeometry relative="1" as="geometry" />
        </mxCell>
        <mxCell id="UlKWdR4gD4S5ooXyk4Mm-5" value="用户" style="rounded=0;whiteSpace=wrap;html=1;" vertex="1" parent="1">
          <mxGeometry x="10" y="240" width="90" height="40" as="geometry" />
        </mxCell>
        <mxCell id="UlKWdR4gD4S5ooXyk4Mm-9" value="tomcat" style="text;html=1;strokeColor=none;fillColor=none;align=center;verticalAlign=middle;whiteSpace=wrap;rounded=0;" vertex="1" parent="1">
          <mxGeometry x="200" y="70" width="60" height="30" as="geometry" />
        </mxCell>
        <mxCell id="UlKWdR4gD4S5ooXyk4Mm-10" value="应用" style="rounded=1;whiteSpace=wrap;html=1;" vertex="1" parent="1">
          <mxGeometry x="580" y="90" width="190" height="230" as="geometry" />
        </mxCell>
        <mxCell id="UlKWdR4gD4S5ooXyk4Mm-11" value="" style="rounded=0;whiteSpace=wrap;html=1;" vertex="1" parent="1">
          <mxGeometry x="310" y="175" width="120" height="95" as="geometry" />
        </mxCell>
        <mxCell id="UlKWdR4gD4S5ooXyk4Mm-12" value="连接" style="rounded=0;whiteSpace=wrap;html=1;" vertex="1" parent="1">
          <mxGeometry x="340" y="191.5" width="60" height="27" as="geometry" />
        </mxCell>
        <mxCell id="UlKWdR4gD4S5ooXyk4Mm-13" value="&lt;span&gt;连接&lt;/span&gt;" style="rounded=0;whiteSpace=wrap;html=1;" vertex="1" parent="1">
          <mxGeometry x="340" y="230" width="60" height="27" as="geometry" />
        </mxCell>
        <mxCell id="UlKWdR4gD4S5ooXyk4Mm-14" value="数据库连接池" style="text;html=1;strokeColor=none;fillColor=none;align=center;verticalAlign=middle;whiteSpace=wrap;rounded=0;" vertex="1" parent="1">
          <mxGeometry x="340" y="145" width="80" height="30" as="geometry" />
        </mxCell>
        <mxCell id="UlKWdR4gD4S5ooXyk4Mm-15" value="" style="rounded=0;whiteSpace=wrap;html=1;" vertex="1" parent="1">
          <mxGeometry x="490" y="175" width="120" height="95" as="geometry" />
        </mxCell>
        <mxCell id="UlKWdR4gD4S5ooXyk4Mm-16" value="连接" style="rounded=0;whiteSpace=wrap;html=1;" vertex="1" parent="1">
          <mxGeometry x="520" y="191.5" width="60" height="27" as="geometry" />
        </mxCell>
        <mxCell id="UlKWdR4gD4S5ooXyk4Mm-17" value="&lt;span&gt;连接&lt;/span&gt;" style="rounded=0;whiteSpace=wrap;html=1;" vertex="1" parent="1">
          <mxGeometry x="520" y="230" width="60" height="27" as="geometry" />
        </mxCell>
        <mxCell id="UlKWdR4gD4S5ooXyk4Mm-18" value="数据库连接池" style="text;html=1;strokeColor=none;fillColor=none;align=center;verticalAlign=middle;whiteSpace=wrap;rounded=0;" vertex="1" parent="1">
          <mxGeometry x="500" y="145" width="80" height="30" as="geometry" />
        </mxCell>
        <mxCell id="UlKWdR4gD4S5ooXyk4Mm-21" value="" style="endArrow=classic;html=1;entryX=0;entryY=0.5;entryDx=0;entryDy=0;" edge="1" parent="1" target="UlKWdR4gD4S5ooXyk4Mm-16">
          <mxGeometry width="50" height="50" relative="1" as="geometry">
            <mxPoint x="400" y="204.5" as="sourcePoint" />
            <mxPoint x="510" y="204.5" as="targetPoint" />
          </mxGeometry>
        </mxCell>
        <mxCell id="UlKWdR4gD4S5ooXyk4Mm-22" value="" style="endArrow=classic;html=1;entryX=0;entryY=0.5;entryDx=0;entryDy=0;" edge="1" parent="1">
          <mxGeometry width="50" height="50" relative="1" as="geometry">
            <mxPoint x="400" y="240" as="sourcePoint" />
            <mxPoint x="520" y="240.5" as="targetPoint" />
          </mxGeometry>
        </mxCell>
      </root>
    </mxGraphModel>
  </diagram>
</mxfile>
